# xmcd
# 
# Track frame offsets:
#   183
#   13705
#   24735
#   36210
#   48860
#   59393
#   70175
#   83040
#   93698
#   103990
#   113213
#   121768
#   131855
#   144233
#   154568
#   165168
#   176023
# 
# Disc length: 2484 seconds
# 
# Revision: 1
# Processed by: cddbd v1.5.2PL0 Copyright (c) Steve Scherf et al.
# Submitted via: VOLTOCDX V1.0.22 
# 
DISCID=de09b211
DTITLE=Patsy Cline - 16 greats
DYEAR=2002
DGENRE=country
TTITLE0=16 greats - Partsy Cline - Life's railway to heaven
TTITLE1=16 greats - Partsy Cline - Stop the world
TTITLE2=16 greats - Partsy Cline - The heart you break may be your own
TTITLE3=16 greats - Partsy Cline - Just a closer walk with thee
TTITLE4=16 greats - Partsy Cline - I can see an angel
TTITLE5=16 greats - Partsy Cline - I cried all the way to the altar
TTITLE6=16 greats - Partsy Cline - Yes, I understand
TTITLE7=16 greats - Partsy Cline - Secrets
TTITLE8=16 greats - Partsy Cline - Turn the cards slowly
TTITLE9=16 greats - Partsy Cline - Try again
TTITLE10=16 greats - Partsy Cline - Come on in
TTITLE11=16 greats - Partsy Cline - Walkin' dream
TTITLE12=16 greats - Partsy Cline - Poor man's roses
TTITLE13=16 greats - Partsy Cline - Pick me up
TTITLE14=16 greats - Partsy Cline - That wonderful someone
TTITLE15=16 greats - Partsy Cline - Stop, look and listen
TTITLE16=16 greats - Partsy Cline - Lovesick blues
EXTD=
EXTT0=
EXTT1=
EXTT2=
EXTT3=
EXTT4=
EXTT5=
EXTT6=
EXTT7=
EXTT8=
EXTT9=
EXTT10=
EXTT11=
EXTT12=
EXTT13=
EXTT14=
EXTT15=
EXTT16=
PLAYORDER=
